<?xml version="1.0" encoding="utf-8"?>
<!-- Generator: Adobe Illustrator 27.3.1, SVG Export Plug-In . SVG Version: 6.00 Build 0)  -->
<svg version="1.1" id="Calque_1" xmlns="http://www.w3.org/2000/svg" xmlns:xlink="http://www.w3.org/1999/xlink" x="0px" y="0px"
	 viewBox="0 0 447.6 106.4" style="enable-background:new 0 0 447.6 106.4;" xml:space="preserve">
<style type="text/css">
	.st0{fill:#FF6136;}
	.st1{fill:#2E3862;}
</style>
<g>
	<path class="st0" d="M370.9,25c3.4,0,4.9,2.3,4.9,4.5s-1.1,3.7-3.9,6.5L360,47.9h14.8l4.5-4.5c3.3-3.2,7-7.8,7-13.9
		c0-8.4-6.1-14.9-15.4-14.9h-21.2c-9.7,0-17.6,7.9-17.6,17.6v19c0,9.7,7.9,17.6,17.6,17.7h33.1V58.3h-33.1c-3.9,0-7.1-3.2-7.1-7.1
		v-19c0-3.9,3.2-7.1,7.1-7.1L370.9,25z"/>
	<path class="st0" d="M317.8,58.3c-3.9,0-7.1-3.2-7.1-7.1V25H321V14.4h-10.4V0h-10.5v51.1c0,9.7,7.9,17.6,17.6,17.6h7.2V58.3H317.8z
		"/>
	<path class="st0" d="M247.4,83.3h-10.5V32.1c0-9.7,7.9-17.6,17.6-17.7h19c9.7,0,17.6,7.9,17.6,17.7v19c0,9.7-7.9,17.6-17.6,17.7
		h-15.8V58.3h15.8c3.9,0,7.1-3.2,7.1-7.1v-19c0-3.9-3.2-7.1-7.1-7.1h-19c-3.9,0-7.1,3.2-7.1,7.1L247.4,83.3z"/>
	<path class="st0" d="M152.9,46.9c3.4,0,4.9,2.3,4.9,4.5s-1.1,3.7-3.9,6.5l-48.6,48.5h14.9l41.2-41.2c3.2-3.2,7-7.8,7-13.9
		c0-8.4-6.1-14.9-15.4-14.9h-33.3c-3.1,0-5.7-2.5-5.7-5.7c0-3.1,2.5-5.7,5.7-5.7c0,0,0,0,0,0h44.7V14.4h-44.7
		c-9,0-16.2,7.3-16.2,16.2s7.3,16.2,16.2,16.2H152.9z"/>
	<path class="st0" d="M214.9,25c3.4,0,4.9,2.3,4.9,4.5s-1.1,3.7-3.9,6.5L204,47.9h14.8l4.5-4.5c3.3-3.2,7-7.8,7-13.9
		c0-8.4-6.1-14.9-15.4-14.9h-21.6c-9.7,0-17.6,7.9-17.6,17.6v19c0,9.7,7.9,17.6,17.6,17.7h33.1V58.3h-33.1c-3.9,0-7.1-3.2-7.1-7.1
		v-19c0-3.9,3.2-7.1,7.1-7.1L214.9,25z"/>
	<path class="st0" d="M429.9,68.8h-19c-9.7,0-17.6-7.9-17.6-17.7v-19c0-9.7,7.9-17.6,17.6-17.6h19c9.7,0,17.6,7.9,17.6,17.6v19
		C447.5,60.9,439.6,68.8,429.9,68.8 M410.9,25c-3.9,0-7.1,3.2-7.1,7.1v19c0,3.9,3.2,7.1,7.1,7.1h19c3.9,0,7.1-3.2,7.1-7.1v-19
		c0-3.9-3.2-7.1-7.1-7.1L410.9,25z"/>
	<g>
		<path class="st1" d="M63.3,25.6L5.7,83.3h8.1l53.6-53.6c0.2-0.2,0.2-0.5,0-0.7L64,25.6C63.8,25.4,63.5,25.4,63.3,25.6z"/>
		<path class="st1" d="M6.8,41.3L48,0h-8.1L2.7,37.2c-0.2,0.2-0.2,0.5,0,0.7l3.4,3.4C6.3,41.5,6.6,41.5,6.8,41.3z"/>
		<path class="st1" d="M71.5,33.8L22.1,83.3h8l45.5-45.4c0.2-0.2,0.2-0.5,0-0.7l-3.4-3.4C72,33.6,71.7,33.6,71.5,33.8
			C71.5,33.8,71.5,33.8,71.5,33.8z"/>
		<path class="st1" d="M79.7,41.9L38.4,83.3h8.1L83.7,46c0.2-0.2,0.2-0.5,0-0.7l-3.4-3.4C80.2,41.8,79.9,41.8,79.7,41.9z"/>
		<path class="st1" d="M10.9,46l3.4,3.4c0.2,0.2,0.5,0.2,0.7,0L64.3,0h-8.1L10.9,45.4C10.7,45.5,10.7,45.8,10.9,46z"/>
		<path class="st1" d="M19.1,54.2l3.4,3.4c0.2,0.2,0.5,0.2,0.7,0L80.7,0h-8.1L19.1,53.5C18.9,53.7,18.9,54,19.1,54.2z"/>
	</g>
</g>
</svg>
